<svg width="502" height="182" viewBox="0 0 502 182" fill="none" xmlns="http://www.w3.org/2000/svg">
<path d="M71.975 5.9288C111.726 3.49724 145.921 33.7504 148.353 73.5011C150.784 113.252 120.531 147.447 80.7805 149.879C41.0298 152.31 6.83432 122.057 4.40276 82.3065C1.97119 42.5558 32.2243 8.36037 71.975 5.9288Z" fill="#054A91"/>
<path d="M72.5842 15.888C106.835 13.7929 136.298 39.8599 138.394 74.1103C140.489 108.361 114.422 137.825 80.1713 139.92C45.9209 142.015 16.457 115.948 14.3619 81.6973C12.2668 47.4469 38.3338 17.9831 72.5842 15.888Z" fill="white"/>
<path d="M133.906 143.096C132.032 141.323 131.95 138.367 133.723 136.492L141.362 128.418C143.135 126.543 146.092 126.461 147.966 128.234L176.365 155.101C179.364 157.938 179.495 162.669 176.658 165.668L172.872 169.67C170.035 172.669 165.304 172.8 162.305 169.963L133.906 143.096Z" fill="#054A91"/>
<path d="M120.586 125.881L130.182 115.737L153.334 137.64C156.135 140.29 156.258 144.709 153.608 147.51C150.958 150.311 146.539 150.434 143.737 147.784L120.586 125.881Z" fill="#054A91"/>
<path d="M56.633 100.503C56.8562 100.273 57.7243 100.846 58.5624 101.777L58.73 101.957C58.7506 101.978 58.7721 101.998 58.7928 102.018L58.7928 102.019C59.6268 102.849 60.5581 103.282 61.0949 103.065C61.6493 102.841 62.3585 103.056 62.6701 103.542L62.7644 103.674C64.9285 106.43 78.405 107.609 84.8095 105.546C88.2015 104.454 89.326 104.578 89.3509 106.044C89.3591 106.504 90.469 108.532 91.8183 110.55C93.1674 112.568 94.2663 113.895 94.2601 113.501C94.2399 112.314 99.8109 104.632 100.099 105.45C100.245 105.866 99.4475 107.52 98.3251 109.126C96.1321 112.264 95.8056 114.912 97.1587 118.591C98.2532 121.566 97.6006 121.896 94.9231 119.719C92.7935 117.988 92.3751 117.907 87.9235 118.357C84.9138 118.661 81.9443 119.478 79.7724 120.599C75.4949 122.807 74.8626 122.474 78.7905 120.082C81.8536 118.216 90.4409 115.724 91.9334 116.268C92.9276 116.63 90.2343 111.847 87.8293 108.98L86.1924 107.027L80.834 107.918C77.8868 108.408 75.348 108.941 75.1916 109.103C74.8498 109.456 73.2089 117.625 73.1985 119.022C73.194 119.679 73.8038 119.411 75.0398 118.215C78.5772 114.79 85.0807 112.664 89.1289 113.607C92.1699 114.315 90.9941 115.138 86.6478 115.343C81.9001 115.566 77.6915 117.26 75.358 119.888C74.4423 120.919 73.4029 123.531 72.8379 126.219C72.325 128.657 71.734 130.502 71.4971 130.424L71.4745 130.41C71.2543 130.196 70.9763 127.898 70.8564 125.303C70.6097 119.958 69.0847 117.165 65.4208 115.349C62.8909 114.094 57.5884 113.967 55.6838 115.115C54.491 115.834 54.6405 115.926 56.9736 115.905C59.9347 115.878 66.0577 118.753 67.1285 120.674L66.6004 120.967C66.1848 120.758 65.5704 120.376 64.7464 119.816C62.3992 118.221 60.6437 117.643 57.2441 117.35L52.9125 116.932L53.2395 114.702C54.0411 113.15 53.8092 109.481 52.7408 106.833C51.8679 104.668 53.6019 105.807 54.7796 108.171C55.8426 110.307 56.1283 110.493 57.0849 109.671C57.6862 109.154 58.5542 107.803 59.0132 106.667C59.779 104.776 59.6975 104.449 58.038 102.762C57.1048 101.813 56.4903 100.86 56.6008 100.555L56.633 100.503ZM67.1285 120.674C67.4197 121.196 67.2596 121.299 66.6004 120.967L67.1285 120.674ZM63.1064 107.213C62.9112 107.283 62.6977 107.415 62.4262 107.666C61.9974 108.062 61.5114 108.672 60.8102 109.622L59.7209 111.098L60.9919 111.261C62.6359 111.473 64.1938 111.875 65.6104 112.456C65.971 112.584 66.3168 112.726 66.641 112.887C68.2365 113.678 69.591 114.677 70.6701 115.977C70.8037 114.844 70.9098 113.33 70.9198 112.099C70.9265 111.27 70.9278 110.757 70.8888 110.376C70.8527 110.024 70.7936 109.94 70.779 109.919C70.755 109.885 70.6658 109.776 70.2838 109.57C69.8933 109.361 69.3495 109.127 68.5137 108.772C68.4493 108.745 68.3856 108.718 68.3227 108.692C67.2105 108.5 66.1591 108.266 65.2124 107.988C64.4777 107.772 63.7613 107.517 63.1064 107.213Z" fill="#054A91"/>
<path d="M71.4644 44.3205C71.4644 43.1841 72.3856 42.2629 73.5219 42.2629H79.8023C80.6061 42.2629 81.2577 42.9145 81.2577 43.7183C81.2577 44.522 80.6061 45.1736 79.8023 45.1736H72.3175C71.8463 45.1736 71.4644 44.7917 71.4644 44.3205Z" fill="#21D496"/>
<path d="M100.192 72.9541V76.6058C100.192 83.3681 98.0276 88.8456 93.6997 93.0383C89.3718 97.2309 83.7816 99.3273 76.9291 99.3273C69.6258 99.3273 63.5622 96.9605 58.7384 92.2268C53.9597 87.4481 51.5703 81.6325 51.5703 74.78C51.5703 67.8824 53.9371 62.0442 58.6708 57.2655C63.4495 52.4868 69.3553 50.0974 76.3881 50.0974C80.8062 50.0974 84.841 51.1118 88.4927 53.1405C92.1444 55.1241 94.9846 57.7839 97.0133 61.12L89.0337 65.7184C87.9066 63.7799 86.1935 62.202 83.8943 60.9848C81.6402 59.7676 79.1156 59.159 76.3205 59.159C71.8123 59.159 68.093 60.6467 65.1626 63.6221C62.2774 66.5524 60.8347 70.2717 60.8347 74.78C60.8347 79.2431 62.2999 82.9399 65.2302 85.8702C68.2057 88.7555 72.1278 90.1981 76.9967 90.1981C80.6033 90.1981 83.5787 89.4092 85.923 87.8313C88.3124 86.2083 89.9353 83.9993 90.7919 81.2042H76.4557V72.9541H100.192Z" fill="#FF595E"/>
<path d="M48.706 58.4962C50.0619 63.0127 49.0536 65.2231 48.706 66.5985L42.5284 62.6592C39.6094 60.7978 38.1022 57.2973 38.9038 53.9294C39.4923 51.4569 40.2576 48.5908 41.1849 46.0103C43.1443 40.5575 49.2735 33.9035 52.4115 31.1997C52.3402 31.5321 51.8893 32.8406 50.656 35.4162C49.1143 38.6356 47.6178 48.5659 47.3458 51.2412C47.0737 53.9165 47.5719 54.719 48.706 58.4962Z" fill="#054A91"/>
<path d="M47.9044 74.7114L47.8255 76.1456C41.5498 76.8596 31.4107 74.1128 26.6744 72.3965C25.5956 60.5298 29.0879 50.5654 32.2224 47.3651L34.3408 65.5903L45.8557 71.2194C47.1783 71.8659 47.9853 73.2415 47.9044 74.7114Z" fill="#054A91"/>
<path d="M34.7637 109.275V90.4512C38.3806 88.7657 46.0052 85.0228 47.5693 83.5351C48.5818 82.5719 48.6961 81.4422 48.5085 80.5885C48.3456 79.8474 47.6015 79.4692 46.8428 79.4559C39.0597 79.3198 29.8608 83.3538 26.1115 85.3948C24.1278 94.7408 31.0531 105.209 34.7637 109.275Z" fill="#054A91"/>
<path d="M53.2737 93.1099C53.0514 92.0168 50.9887 88.9643 49.9851 87.5748C47.2124 88.5835 42.4255 93.0545 40.0072 95.647C39.6862 95.9912 39.5181 96.4492 39.5497 96.9188C40.338 108.646 50.9409 120.477 56.1726 124.951C52.188 118.241 50.1227 107.788 49.3746 101.804C49.2007 100.414 49.5479 99.0188 50.2952 97.8337L53.2737 93.1099Z" fill="#054A91"/>
<path d="M103.054 58.4962C101.699 63.0127 102.707 65.2231 103.054 66.5985L109.232 62.6592C112.151 60.7978 113.658 57.2973 112.857 53.9294C112.268 51.4569 111.503 48.5908 110.576 46.0103C108.616 40.5575 102.487 33.9035 99.3489 31.1997C99.4202 31.5321 99.8711 32.8406 101.104 35.4162C102.646 38.6356 104.143 48.5659 104.415 51.2412C104.687 53.9165 104.189 54.719 103.054 58.4962Z" fill="#054A91"/>
<path d="M103.856 74.7114L103.935 76.1456C110.211 76.8596 120.35 74.1128 125.086 72.3965C126.165 60.5298 122.673 50.5654 119.538 47.3651L117.42 65.5903L105.905 71.2194C104.582 71.8659 103.775 73.2415 103.856 74.7114Z" fill="#054A91"/>
<path d="M116.997 109.275V90.4512C113.38 88.7657 105.755 85.0228 104.191 83.5351C103.179 82.5719 103.064 81.4422 103.252 80.5885C103.415 79.8474 104.159 79.4692 104.918 79.4559C112.701 79.3198 121.9 83.3538 125.649 85.3948C127.633 94.7408 120.707 105.209 116.997 109.275Z" fill="#054A91"/>
<path d="M98.4868 93.1099C98.7091 92.0168 100.772 88.9643 101.775 87.5748C104.548 88.5835 109.335 93.0545 111.753 95.647C112.074 95.9912 112.242 96.4492 112.211 96.9188C111.422 108.646 100.82 120.477 95.5879 124.951C99.5724 118.241 101.638 107.788 102.386 101.804C102.56 100.414 102.213 99.0188 101.465 97.8337L98.4868 93.1099Z" fill="#054A91"/>
<path d="M230.428 95.7231V100.856C230.428 111.123 227.041 119.536 220.268 126.095C213.495 132.583 204.654 135.827 193.746 135.827C182.197 135.827 172.643 132.084 165.086 124.598C157.6 117.112 153.857 107.915 153.857 97.0064C153.857 86.1696 157.6 77.0082 165.086 69.5222C172.643 61.9649 181.983 58.1863 193.105 58.1863C200.092 58.1863 206.472 59.7904 212.247 62.9987C218.022 66.207 222.514 70.5203 225.722 75.9387L215.135 82.0345C213.139 78.4697 210.18 75.6179 206.259 73.4791C202.337 71.2689 197.953 70.1638 193.105 70.1638C185.262 70.1638 178.81 72.7305 173.748 77.8637C168.686 82.9969 166.155 89.4135 166.155 97.1133C166.155 104.813 168.686 111.194 173.748 116.256C178.881 121.318 185.583 123.849 193.853 123.849C200.484 123.849 205.866 122.316 210.002 119.25C214.208 116.113 216.882 111.943 218.022 106.738H192.998V95.7231H230.428ZM266.161 135.827C258.104 135.827 251.367 133.117 245.948 127.699C240.601 122.28 237.928 115.614 237.928 107.701C237.928 99.7156 240.601 93.0495 245.948 87.7024C251.367 82.284 258.104 79.5748 266.161 79.5748C271.365 79.5748 276.106 80.8224 280.384 83.3178C284.662 85.8131 287.87 89.164 290.009 93.3704L280.063 99.1453C278.851 96.5786 276.997 94.5824 274.502 93.1565C272.078 91.6593 269.262 90.9107 266.054 90.9107C261.348 90.9107 257.391 92.5148 254.183 95.7231C251.046 98.9314 249.478 102.924 249.478 107.701C249.478 112.477 251.046 116.47 254.183 119.678C257.391 122.886 261.348 124.491 266.054 124.491C269.191 124.491 272.007 123.742 274.502 122.245C277.069 120.748 278.994 118.751 280.277 116.256L290.223 121.924C287.941 126.202 284.662 129.588 280.384 132.084C276.106 134.579 271.365 135.827 266.161 135.827ZM310.434 89.9482C313.357 83.3178 318.847 80.0026 326.903 80.0026V92.5148C322.483 92.2296 318.633 93.2991 315.353 95.7231C312.074 98.0758 310.434 101.997 310.434 107.487V134.436H298.884V80.965H310.434V89.9482ZM375.28 80.965H386.829V134.436H375.28V126.736C370.931 132.796 364.692 135.827 356.565 135.827C349.221 135.827 342.947 133.117 337.743 127.699C332.538 122.209 329.936 115.543 329.936 107.701C329.936 99.7869 332.538 93.1208 337.743 87.7024C342.947 82.284 349.221 79.5748 356.565 79.5748C364.692 79.5748 370.931 82.5692 375.28 88.5579V80.965ZM346.298 119.999C349.506 123.207 353.535 124.811 358.383 124.811C363.231 124.811 367.259 123.207 370.467 119.999C373.675 116.719 375.28 112.62 375.28 107.701C375.28 102.781 373.675 98.7175 370.467 95.5092C367.259 92.2296 363.231 90.5899 358.383 90.5899C353.535 90.5899 349.506 92.2296 346.298 95.5092C343.09 98.7175 341.486 102.781 341.486 107.701C341.486 112.62 343.09 116.719 346.298 119.999ZM461.89 80.965H474.082L457.292 134.436H445.956L434.834 98.3967L423.605 134.436H412.269L395.479 80.965H407.671L418.044 117.86L429.273 80.965H440.288L451.41 117.86L461.89 80.965ZM482.587 134.436V56.3683H494.137V134.436H482.587Z" fill="#054A91"/>
</svg>
